<svg width="830" height="300" viewBox="0 0 830 300" fill="none" xmlns="http://www.w3.org/2000/svg">
<path d="M267.392 40.0886C268.724 40.3709 269.273 41.9172 268.525 43.0538C260.103 55.8426 251.094 74.7123 245.44 100.235C237.218 137.348 226.296 162.849 213.666 181.764C212.86 182.972 211.286 183.411 210.012 182.714C186.486 169.845 180.276 130.698 196.421 93.0136C211.869 56.9553 242.406 34.7903 267.392 40.0886Z" fill="#083944"/>
<path d="M282.95 45.2297C281.696 44.5688 280.168 44.99 279.361 46.1558C270.483 58.9911 260.07 78.6717 255.757 103.602C246.451 142.877 234.628 168.075 223.78 184.916C223.064 186.027 223.583 187.519 224.865 187.837C250.062 194.098 281.319 171.807 297.01 135.182C313.262 97.249 306.862 57.8331 282.95 45.2297Z" fill="#2F6672"/>
<path d="M70.2606 78.6446C71.4623 78.006 72.8895 78.8122 73.0616 80.1621C75.5145 99.4003 82.4899 125.118 98.3825 154.501C121.38 197.019 132.021 230.556 135.521 259.178C135.697 260.619 134.794 261.979 133.38 262.308C100.16 270.03 61.4958 237.722 45.6566 188.117C30.4854 140.604 41.5759 93.8876 70.2606 78.6446Z" fill="#083944"/>
<path d="M86.1879 72.8393C84.8121 73.1809 83.9312 74.497 84.0798 75.9067C86.1486 95.5266 92.4352 123.2 109.099 150.841C132.887 196.403 142.389 230.41 145.88 255.505C146.062 256.814 147.431 257.604 148.618 257.024C178.281 242.529 189.946 195.114 174.544 146.878C158.604 96.9578 119.548 64.5548 86.1879 72.8393Z" fill="#2F6672"/>
<path d="M439.425 56.7C443.158 56.7 445.842 58.1583 447.475 61.075C449.225 63.9917 449.633 67.375 448.7 71.225C448 71.925 447.417 71.8667 446.95 71.05C446.717 68.7167 445.667 66.7333 443.8 65.1C442.05 63.35 439.308 62.475 435.575 62.475C430.325 62.475 424.958 64.05 419.475 67.2C414.108 70.35 408.742 75.6 403.375 82.95C398.125 90.3 392.933 100.042 387.8 112.175C382.783 124.192 377.942 139.125 373.275 156.975C374.325 155.458 375.492 154 376.775 152.6C378.175 151.083 379.692 149.742 381.325 148.575C382.958 147.292 384.65 146.3 386.4 145.6C388.15 144.783 389.9 144.375 391.65 144.375C394.333 144.375 396.2 145.483 397.25 147.7C398.417 149.917 399 152.483 399 155.4C399 159.133 398.067 163.042 396.2 167.125C394.333 171.092 391.942 174.708 389.025 177.975C386.225 181.242 383.133 183.925 379.75 186.025C376.367 188.125 373.217 189.175 370.3 189.175C368.2 189.175 366.45 188.592 365.05 187.425C363.767 186.142 363.125 183.983 363.125 180.95C363.125 178.383 363.533 175 364.35 170.8C365.167 166.6 366.275 161.992 367.675 156.975C369.075 151.842 370.767 146.475 372.75 140.875C374.733 135.275 376.892 129.733 379.225 124.25C389.025 101.15 398.825 84.1167 408.625 73.15C418.542 62.1833 428.808 56.7 439.425 56.7ZM387.8 150.15C386.05 150.15 384.183 150.733 382.2 151.9C380.217 152.95 378.35 154.583 376.6 156.8C374.85 159.017 373.333 161.817 372.05 165.2C370.883 168.583 370.125 172.492 369.775 176.925C369.542 179.492 369.833 181.3 370.65 182.35C371.583 183.4 372.925 183.925 374.675 183.925C376.892 183.925 379.108 183.225 381.325 181.825C383.542 180.308 385.525 178.383 387.275 176.05C389.025 173.717 390.425 171.092 391.475 168.175C392.642 165.258 393.225 162.342 393.225 159.425C393.225 156.042 392.7 153.65 391.65 152.25C390.6 150.85 389.317 150.15 387.8 150.15ZM436.287 151.9C436.287 153.533 435.646 155.05 434.362 156.45C433.079 157.85 431.329 159.133 429.112 160.3C426.896 161.35 424.329 162.342 421.412 163.275C418.612 164.208 415.637 165.083 412.487 165.9C412.371 167.183 412.254 168.467 412.137 169.75C412.137 171.033 412.137 172.433 412.137 173.95C412.137 176.867 412.779 179.317 414.062 181.3C415.346 183.283 417.154 184.275 419.487 184.275C421.821 184.275 423.979 183.692 425.962 182.525C428.062 181.358 429.929 179.783 431.562 177.8C432.029 177.567 432.379 177.625 432.612 177.975C432.846 178.325 432.846 178.733 432.612 179.2C430.629 181.883 428.121 184.217 425.087 186.2C422.171 188.067 419.079 189 415.812 189C412.779 189 410.271 188.008 408.287 186.025C406.421 184.042 405.487 181.125 405.487 177.275C405.487 173.775 406.129 170.1 407.412 166.25C408.696 162.283 410.387 158.667 412.487 155.4C414.587 152.133 416.979 149.45 419.662 147.35C422.462 145.25 425.379 144.2 428.412 144.2C430.629 144.2 432.496 145.017 434.012 146.65C435.529 148.167 436.287 149.917 436.287 151.9ZM424.737 148.75C422.054 148.75 419.662 149.917 417.562 152.25C415.462 154.583 413.946 158.258 413.012 163.275C418.612 162.458 422.696 161.292 425.262 159.775C427.946 158.142 429.287 156.333 429.287 154.35C429.287 152.717 428.879 151.375 428.062 150.325C427.246 149.275 426.137 148.75 424.737 148.75ZM483.547 177.975C483.78 177.742 484.072 177.742 484.422 177.975C484.772 178.208 484.889 178.558 484.772 179.025C482.322 182.408 479.872 184.917 477.422 186.55C475.089 188.183 473.105 189 471.472 189C470.422 189 469.547 188.475 468.847 187.425C468.264 186.375 467.855 184.975 467.622 183.225C467.505 181.358 467.564 179.317 467.797 177.1C468.147 174.767 468.672 172.375 469.372 169.925C466.222 174.825 462.897 179.083 459.397 182.7C455.897 186.2 452.514 188.3 449.247 189C447.147 189 445.339 188.008 443.822 186.025C442.422 183.925 441.722 180.717 441.722 176.4C441.722 172.55 442.48 168.758 443.997 165.025C445.63 161.175 447.789 157.733 450.472 154.7C453.155 151.55 456.247 149.042 459.747 147.175C463.247 145.308 466.922 144.375 470.772 144.375C472.872 144.375 474.68 144.608 476.197 145.075C477.714 145.542 479.114 146.242 480.397 147.175C481.097 146.592 482.03 146.067 483.197 145.6C484.48 145.017 485.647 144.725 486.697 144.725C487.28 144.725 487.455 145.017 487.222 145.6C484.539 148.867 482.205 152.483 480.222 156.45C478.355 160.417 476.897 164.267 475.847 168C474.797 171.733 474.097 175.058 473.747 177.975C473.514 180.775 473.747 182.7 474.447 183.75C475.03 184.567 476.08 184.625 477.597 183.925C479.114 183.108 481.097 181.125 483.547 177.975ZM453.097 183.05C454.38 183.05 456.014 182.175 457.997 180.425C460.097 178.558 462.255 176.167 464.472 173.25C466.689 170.333 468.847 167.067 470.947 163.45C473.164 159.717 475.089 155.983 476.722 152.25C476.255 150.733 475.147 149.508 473.397 148.575C471.764 147.642 469.839 147.175 467.622 147.175C465.055 147.175 462.605 147.875 460.272 149.275C458.055 150.558 456.072 152.425 454.322 154.875C452.572 157.208 451.172 160.008 450.122 163.275C449.072 166.542 448.547 170.158 448.547 174.125C448.547 176.692 448.955 178.85 449.772 180.6C450.705 182.233 451.814 183.05 453.097 183.05ZM537.087 177.8C537.437 177.567 537.787 177.567 538.137 177.8C538.487 178.033 538.604 178.383 538.487 178.85C536.504 181.533 534.287 183.925 531.837 186.025C529.504 188.008 527.287 189 525.187 189C521.571 189 519.762 186.667 519.762 182C519.762 178.033 520.462 173.658 521.862 168.875C523.262 163.975 525.187 159.075 527.637 154.175C528.104 153.358 528.337 152.542 528.337 151.725C528.337 150.442 527.754 149.8 526.587 149.8C522.271 149.8 517.487 152.775 512.237 158.725C507.104 164.675 502.321 174.008 497.887 186.725C497.654 187.425 497.012 188.008 495.962 188.475C494.912 188.825 493.921 189 492.987 189C491.704 189 491.237 188.475 491.587 187.425C493.571 182.408 495.612 176.75 497.712 170.45C499.929 164.15 501.854 157.908 503.487 151.725C503.954 149.508 503.546 148.4 502.262 148.4C501.096 148.4 499.929 148.983 498.762 150.15C497.596 151.317 496.371 152.833 495.087 154.7C494.854 154.933 494.562 154.875 494.212 154.525C493.979 154.175 493.921 153.825 494.037 153.475C495.321 151.492 497.071 149.45 499.287 147.35C501.504 145.25 503.896 144.2 506.462 144.2C509.379 144.2 510.371 146.183 509.437 150.15C508.971 152.717 508.329 155.458 507.512 158.375C506.696 161.175 505.821 163.975 504.887 166.775C506.521 163.625 508.446 160.65 510.662 157.85C512.879 155.05 515.154 152.658 517.487 150.675C519.937 148.692 522.329 147.117 524.662 145.95C527.112 144.783 529.387 144.2 531.487 144.2C532.887 144.2 533.937 144.55 534.637 145.25C535.454 145.95 535.862 146.767 535.862 147.7C535.862 149.217 535.512 150.733 534.812 152.25C532.362 156.683 530.262 161.35 528.512 166.25C526.879 171.033 526.062 175.467 526.062 179.55C526.062 182.467 526.996 183.925 528.862 183.925C531.312 183.925 534.054 181.883 537.087 177.8ZM589.308 144.2C591.642 144.2 593.567 144.608 595.083 145.425C596.717 146.125 597.533 146.942 597.533 147.875C597.533 149.158 597.242 150.617 596.658 152.25C596.192 153.883 595.667 155.225 595.083 156.275C594.85 156.508 594.5 156.567 594.033 156.45C593.683 156.217 593.567 155.925 593.683 155.575C594.033 154.758 594.267 153.825 594.383 152.775C594.5 151.725 594.442 150.792 594.208 149.975C593.625 147.642 591.992 146.475 589.308 146.475C587.325 146.475 585.692 147.058 584.408 148.225C583.242 149.392 582.658 151.142 582.658 153.475C582.658 155.342 583.125 157.15 584.058 158.9C585.108 160.533 586.217 162.225 587.383 163.975C588.667 165.608 589.775 167.417 590.708 169.4C591.758 171.267 592.283 173.367 592.283 175.7C592.283 179.433 590.942 182.583 588.258 185.15C585.692 187.717 581.783 189 576.533 189C572.917 189 569.942 188.358 567.608 187.075C565.275 185.792 564.108 184.45 564.108 183.05C564.108 182 564.75 180.425 566.033 178.325C567.317 176.225 568.775 174.533 570.408 173.25C570.758 173.017 571.05 173.075 571.283 173.425C571.633 173.775 571.692 174.125 571.458 174.475C570.525 175.408 569.825 176.517 569.358 177.8C568.892 178.967 568.775 180.017 569.008 180.95C569.358 182.933 570.233 184.45 571.633 185.5C573.15 186.433 574.9 186.9 576.883 186.9C579.917 186.9 582.25 186.083 583.883 184.45C585.633 182.817 586.508 180.717 586.508 178.15C586.508 175.933 585.983 173.892 584.933 172.025C583.883 170.042 582.717 168.175 581.433 166.425C580.267 164.558 579.158 162.75 578.108 161C577.175 159.133 576.708 157.15 576.708 155.05C576.708 152.017 577.817 149.45 580.033 147.35C582.367 145.25 585.458 144.2 589.308 144.2ZM629.117 158.375C628.533 158.375 628.242 158.083 628.242 157.5C629.175 155.167 629.175 153.125 628.242 151.375C627.425 149.625 625.675 148.75 622.992 148.75C621.125 148.75 619.375 149.45 617.742 150.85C616.108 152.133 614.708 154 613.542 156.45C612.375 158.783 611.442 161.583 610.742 164.85C610.042 168 609.692 171.442 609.692 175.175C609.692 180.892 611.675 183.75 615.642 183.75C620.192 183.75 624.742 181.008 629.292 175.525C629.758 175.292 630.167 175.35 630.517 175.7C630.867 175.933 630.925 176.342 630.692 176.925C628.008 180.308 625.033 183.225 621.767 185.675C618.5 188.008 615.292 189.175 612.142 189.175C609.575 189.175 607.417 188.242 605.667 186.375C604.033 184.508 603.217 181.942 603.217 178.675C603.217 174.592 603.858 170.508 605.142 166.425C606.542 162.342 608.292 158.667 610.392 155.4C612.608 152.133 615.117 149.508 617.917 147.525C620.717 145.425 623.575 144.375 626.492 144.375C628.942 144.375 630.867 144.958 632.267 146.125C633.667 147.292 634.367 148.692 634.367 150.325C634.367 150.908 634.192 151.608 633.842 152.425C633.492 153.242 633.025 154.058 632.442 154.875C631.975 155.692 631.392 156.45 630.692 157.15C630.108 157.733 629.583 158.142 629.117 158.375ZM669.564 151.9C669.564 153.533 668.922 155.05 667.639 156.45C666.355 157.85 664.605 159.133 662.389 160.3C660.172 161.35 657.605 162.342 654.689 163.275C651.889 164.208 648.914 165.083 645.764 165.9C645.647 167.183 645.53 168.467 645.414 169.75C645.414 171.033 645.414 172.433 645.414 173.95C645.414 176.867 646.055 179.317 647.339 181.3C648.622 183.283 650.43 184.275 652.764 184.275C655.097 184.275 657.255 183.692 659.239 182.525C661.339 181.358 663.205 179.783 664.839 177.8C665.305 177.567 665.655 177.625 665.889 177.975C666.122 178.325 666.122 178.733 665.889 179.2C663.905 181.883 661.397 184.217 658.364 186.2C655.447 188.067 652.355 189 649.089 189C646.055 189 643.547 188.008 641.564 186.025C639.697 184.042 638.764 181.125 638.764 177.275C638.764 173.775 639.405 170.1 640.689 166.25C641.972 162.283 643.664 158.667 645.764 155.4C647.864 152.133 650.255 149.45 652.939 147.35C655.739 145.25 658.655 144.2 661.689 144.2C663.905 144.2 665.772 145.017 667.289 146.65C668.805 148.167 669.564 149.917 669.564 151.9ZM658.014 148.75C655.33 148.75 652.939 149.917 650.839 152.25C648.739 154.583 647.222 158.258 646.289 163.275C651.889 162.458 655.972 161.292 658.539 159.775C661.222 158.142 662.564 156.333 662.564 154.35C662.564 152.717 662.155 151.375 661.339 150.325C660.522 149.275 659.414 148.75 658.014 148.75ZM718.923 177.8C719.273 177.567 719.623 177.567 719.973 177.8C720.323 178.033 720.44 178.383 720.323 178.85C718.34 181.533 716.123 183.925 713.673 186.025C711.34 188.008 709.123 189 707.023 189C703.407 189 701.598 186.667 701.598 182C701.598 178.033 702.298 173.658 703.698 168.875C705.098 163.975 707.023 159.075 709.473 154.175C709.94 153.358 710.173 152.542 710.173 151.725C710.173 150.442 709.59 149.8 708.423 149.8C704.107 149.8 699.323 152.775 694.073 158.725C688.94 164.675 684.157 174.008 679.723 186.725C679.49 187.425 678.848 188.008 677.798 188.475C676.748 188.825 675.757 189 674.823 189C673.54 189 673.073 188.475 673.423 187.425C675.407 182.408 677.448 176.75 679.548 170.45C681.765 164.15 683.69 157.908 685.323 151.725C685.79 149.508 685.382 148.4 684.098 148.4C682.932 148.4 681.765 148.983 680.598 150.15C679.432 151.317 678.207 152.833 676.923 154.7C676.69 154.933 676.398 154.875 676.048 154.525C675.815 154.175 675.757 153.825 675.873 153.475C677.157 151.492 678.907 149.45 681.123 147.35C683.34 145.25 685.732 144.2 688.298 144.2C691.215 144.2 692.207 146.183 691.273 150.15C690.807 152.717 690.165 155.458 689.348 158.375C688.532 161.175 687.657 163.975 686.723 166.775C688.357 163.625 690.282 160.65 692.498 157.85C694.715 155.05 696.99 152.658 699.323 150.675C701.773 148.692 704.165 147.117 706.498 145.95C708.948 144.783 711.223 144.2 713.323 144.2C714.723 144.2 715.773 144.55 716.473 145.25C717.29 145.95 717.698 146.767 717.698 147.7C717.698 149.217 717.348 150.733 716.648 152.25C714.198 156.683 712.098 161.35 710.348 166.25C708.715 171.033 707.898 175.467 707.898 179.55C707.898 182.467 708.832 183.925 710.698 183.925C713.148 183.925 715.89 181.883 718.923 177.8ZM756.551 151.9C756.551 153.533 755.909 155.05 754.626 156.45C753.343 157.85 751.593 159.133 749.376 160.3C747.159 161.35 744.593 162.342 741.676 163.275C738.876 164.208 735.901 165.083 732.751 165.9C732.634 167.183 732.518 168.467 732.401 169.75C732.401 171.033 732.401 172.433 732.401 173.95C732.401 176.867 733.043 179.317 734.326 181.3C735.609 183.283 737.418 184.275 739.751 184.275C742.084 184.275 744.243 183.692 746.226 182.525C748.326 181.358 750.193 179.783 751.826 177.8C752.293 177.567 752.643 177.625 752.876 177.975C753.109 178.325 753.109 178.733 752.876 179.2C750.893 181.883 748.384 184.217 745.351 186.2C742.434 188.067 739.343 189 736.076 189C733.043 189 730.534 188.008 728.551 186.025C726.684 184.042 725.751 181.125 725.751 177.275C725.751 173.775 726.393 170.1 727.676 166.25C728.959 162.283 730.651 158.667 732.751 155.4C734.851 152.133 737.243 149.45 739.926 147.35C742.726 145.25 745.643 144.2 748.676 144.2C750.893 144.2 752.759 145.017 754.276 146.65C755.793 148.167 756.551 149.917 756.551 151.9ZM745.001 148.75C742.318 148.75 739.926 149.917 737.826 152.25C735.726 154.583 734.209 158.258 733.276 163.275C738.876 162.458 742.959 161.292 745.526 159.775C748.209 158.142 749.551 156.333 749.551 154.35C749.551 152.717 749.143 151.375 748.326 150.325C747.509 149.275 746.401 148.75 745.001 148.75Z" fill="#083944"/>
</svg>
