<svg width="300" height="300" viewBox="0 0 300 300" fill="none" xmlns="http://www.w3.org/2000/svg">
<g clip-path="url(#clip0_3_45)">
<path d="M245.392 40.0886C246.724 40.3709 247.273 41.9172 246.525 43.0538C238.103 55.8426 229.094 74.7123 223.44 100.235C215.218 137.348 204.296 162.849 191.666 181.764C190.86 182.972 189.286 183.411 188.012 182.714C164.486 169.845 158.276 130.698 174.421 93.0136C189.869 56.9553 220.406 34.7903 245.392 40.0886Z" fill="#4AA1B5"/>
<path d="M260.95 45.2297C259.696 44.5687 258.168 44.99 257.361 46.1558C248.483 58.9911 238.07 78.6717 233.757 103.602C224.451 142.877 212.628 168.075 201.78 184.916C201.064 186.027 201.583 187.518 202.865 187.837C228.062 194.098 259.319 171.807 275.01 135.182C291.262 97.249 284.862 57.8331 260.95 45.2297Z" fill="#E0E0E0"/>
<path d="M48.2606 78.6446C49.4623 78.006 50.8895 78.8122 51.0616 80.1621C53.5145 99.4003 60.4899 125.118 76.3825 154.501C99.3802 197.019 110.021 230.556 113.521 259.178C113.697 260.619 112.794 261.979 111.38 262.308C78.1602 270.03 39.4958 237.722 23.6566 188.117C8.4854 140.604 19.5759 93.8877 48.2606 78.6446Z" fill="#4AA1B5"/>
<path d="M64.1879 72.8393C62.8121 73.1809 61.9311 74.497 62.0798 75.9068C64.1485 95.5266 70.4352 123.2 87.0987 150.841C110.887 196.403 120.389 230.41 123.88 255.505C124.061 256.814 125.431 257.604 126.618 257.024C156.281 242.529 167.946 195.114 152.544 146.878C136.604 96.9578 97.548 64.5549 64.1879 72.8393Z" fill="#E0E0E0"/>
</g>
<defs>
<clipPath id="clip0_3_45">
<rect width="300" height="300" fill="white"/>
</clipPath>
</defs>
</svg>
